<svg width="24" height="24" viewBox="0 0 24 24" fill="none" xmlns="http://www.w3.org/2000/svg">
<g id="Icon-L/Line/3-dot-vertical">
<g id="Icon">
<path id="Vector" d="M11.5 6C10.6716 6 10 5.32843 10 4.5C10 3.67157 10.6716 3 11.5 3C12.3284 3 13 3.67157 13 4.5C13 5.32843 12.3284 6 11.5 6Z" fill="black"/>
<path id="Vector_2" d="M11.5 13C10.6716 13 10 12.3284 10 11.5C10 10.6716 10.6716 10 11.5 10C12.3284 10 13 10.6716 13 11.5C13 12.3284 12.3284 13 11.5 13Z" fill="black"/>
<path id="Vector_3" d="M11.5 20C10.6716 20 10 19.3284 10 18.5C10 17.6716 10.6716 17 11.5 17C12.3284 17 13 17.6716 13 18.5C13 19.3284 12.3284 20 11.5 20Z" fill="black"/>
</g>
</g>
</svg>
