<svg width="24" height="24" viewBox="0 0 24 24" fill="none" xmlns="http://www.w3.org/2000/svg">
<g id="Icon-L/Bold/filter">
<g id="vuesax/bold/filter">
<g id="filter">
<path id="Vector" d="M20.6 4.1001V6.3001C20.6 7.1001 20.1 8.1001 19.6 8.6001L15.3 12.4001C14.7 12.9001 14.3 13.9001 14.3 14.7001V19.0001C14.3 19.6001 13.9 20.4001 13.4 20.7001L12 21.6001C10.7 22.4001 8.9 21.5001 8.9 19.9001V14.6001C8.9 13.9001 8.5 13.0001 8.1 12.5001L7.63 12.0101C7.32 11.6801 7.26 11.1801 7.51 10.7901L12.63 2.5701C12.81 2.2801 13.13 2.1001 13.48 2.1001H18.6C19.7 2.1001 20.6 3.0001 20.6 4.1001Z" fill="#292D32"/>
<path id="Vector_2" d="M10.35 3.6301L6.8 9.3201C6.46 9.8701 5.68 9.9501 5.23 9.4801L4.3 8.5001C3.8 8.0001 3.4 7.1001 3.4 6.5001V4.2001C3.4 3.0001 4.3 2.1001 5.4 2.1001H9.5C10.28 2.1001 10.76 2.9601 10.35 3.6301Z" fill="#292D32"/>
</g>
</g>
</g>
</svg>
