<svg width="24" height="24" viewBox="0 0 24 24" fill="none" xmlns="http://www.w3.org/2000/svg">
<g id="Icon-L/Bold/global">
<g id="vuesax/bold/global">
<path id="Vector" d="M20.4751 6.71828C20.7054 7.08656 20.3508 7.51225 19.9311 7.40022C19.1438 7.19003 18.3514 7.0091 17.5517 6.86226C17.3415 6.82368 17.1774 6.65826 17.1402 6.44789C16.9994 5.65289 16.8213 4.86239 16.6104 4.08109C16.4966 3.65956 16.9243 3.30071 17.2942 3.53275C18.5813 4.34024 19.6694 5.42985 20.4751 6.71828Z" fill="#292D32"/>
<path id="Vector_2" d="M3.54495 6.71828C3.31466 7.08656 3.66922 7.51225 4.08888 7.40022C4.87626 7.19003 5.66861 7.0091 6.46834 6.86226C6.67847 6.82368 6.8426 6.65826 6.87984 6.44789C7.0206 5.65289 7.19876 4.86239 7.40962 4.08109C7.52339 3.65956 7.09568 3.30071 6.72582 3.53275C5.43867 4.34024 4.35063 5.42985 3.54495 6.71828Z" fill="#292D32"/>
<path id="Vector_3" d="M20.475 16.9917C20.7053 16.6234 20.3508 16.1977 19.9311 16.3097C19.1437 16.5199 18.3514 16.7009 17.5516 16.8477C17.3415 16.8863 17.1774 17.0517 17.1401 17.2621C16.9994 18.0571 16.8212 18.8476 16.6104 19.6289C16.4966 20.0504 16.9243 20.4092 17.2942 20.1772C18.5813 19.3697 19.6694 18.2801 20.475 16.9917Z" fill="#292D32"/>
<path id="Vector_4" d="M3.54492 16.9917C3.31463 16.6234 3.66919 16.1977 4.08885 16.3097C4.87623 16.5199 5.66858 16.7009 6.46831 16.8477C6.67844 16.8863 6.84257 17.0517 6.87981 17.2621C7.02057 18.0571 7.19873 18.8476 7.40959 19.6289C7.52336 20.0504 7.09565 20.4092 6.72579 20.1772C5.43864 19.3697 4.3506 18.2801 3.54492 16.9917Z" fill="#292D32"/>
<path id="Vector_5" d="M15.3636 5.92952C15.4295 6.25804 15.1547 6.55244 14.821 6.52228C12.9438 6.35257 11.0562 6.35257 9.17905 6.52228C8.84534 6.55244 8.57047 6.25805 8.63625 5.9295C8.86625 4.78082 9.15235 3.6378 9.53001 2.53C9.5623 2.40082 9.63563 2.289 9.76559 2.26004C10.4874 2.09921 11.2271 2 12 2C12.7627 2 13.5089 2.09892 14.2236 2.25935C14.3542 2.28865 14.4376 2.40019 14.47 2.53C14.8476 3.64599 15.1337 4.7831 15.3636 5.92952Z" fill="#292D32"/>
<path id="Vector_6" d="M6.52519 14.8243C6.55415 15.157 6.26064 15.4302 5.93317 15.3649C4.77842 15.1347 3.64007 14.8482 2.53 14.4698C2.40082 14.4375 2.289 14.3641 2.26004 14.2342C2.09921 13.5124 2 12.7726 2 11.9998C2 11.2371 2.09892 10.4909 2.25935 9.77617C2.28865 9.64561 2.40019 9.56222 2.53 9.52977C3.64832 9.1598 4.78077 8.8676 5.93331 8.63534C6.26064 8.56937 6.55415 8.84255 6.52519 9.1752C6.3616 11.0547 6.3616 12.9448 6.52519 14.8243Z" fill="#292D32"/>
<path id="Vector_7" d="M22 11.9998C22 12.7726 21.9008 13.5124 21.74 14.2342C21.711 14.3641 21.5992 14.4375 21.47 14.4698C20.354 14.839 19.2168 15.1307 18.0704 15.3628C17.742 15.4292 17.4476 15.1544 17.4777 14.8207C17.6474 12.9436 17.6474 11.0559 17.4777 9.1788C17.4476 8.8451 17.742 8.57022 18.0705 8.63601C19.2192 8.86601 20.3622 9.15211 21.47 9.52977C21.5967 9.56144 21.7119 9.64921 21.7403 9.7767C21.9009 10.498 22 11.2365 22 11.9998Z" fill="#292D32"/>
<path id="Vector_8" d="M14.8215 17.4807C15.1549 17.4482 15.43 17.742 15.3645 18.0706C15.1343 19.2241 14.8481 20.3612 14.47 21.4702C14.4376 21.6 14.3542 21.7115 14.2236 21.7408C13.5089 21.9012 12.7627 22.0002 12 22.0002C11.2271 22.0002 10.4874 21.9009 9.7656 21.7401C9.63563 21.7112 9.5623 21.5993 9.53001 21.4702C9.16035 20.3528 8.86834 19.2213 8.63617 18.0698C8.57 17.7416 8.84468 17.4478 9.17791 17.4802C10.1156 17.5714 11.0545 17.6302 12 17.6302C12.944 17.6302 13.888 17.5716 14.8215 17.4807Z" fill="#292D32"/>
<path id="Vector_9" d="M15.8094 15.3781C15.7838 15.605 15.605 15.7838 15.3781 15.8094C13.1317 16.0635 10.8683 16.0635 8.6219 15.8094C8.39503 15.7838 8.21624 15.605 8.19058 15.3781C7.93647 13.1317 7.93647 10.8683 8.19058 8.6219C8.21624 8.39503 8.39503 8.21624 8.6219 8.19058C10.8683 7.93647 13.1317 7.93647 15.3781 8.19058C15.605 8.21624 15.7838 8.39503 15.8094 8.6219C16.0635 10.8683 16.0635 13.1317 15.8094 15.3781Z" fill="#292D32"/>
</g>
</g>
</svg>
