<svg width="24" height="24" viewBox="0 0 24 24" fill="none" xmlns="http://www.w3.org/2000/svg">
<path d="M18 2C19.1046 2 20 2.89543 20 4V19.9678C20 21.7398 17.7439 22.4919 16.6807 21.0742C16.0412 20.222 14.8148 20.0878 14.0059 20.7812L13.3018 21.3848C12.5528 22.0266 11.4472 22.0266 10.6982 21.3848L9.99414 20.7812C9.18516 20.0878 7.95876 20.222 7.31934 21.0742C6.2561 22.4919 4 21.7398 4 19.9678V4C4 2.89543 4.89543 2 6 2H18ZM9 14.25C8.58579 14.25 8.25 14.5858 8.25 15C8.25 15.4142 8.58579 15.75 9 15.75H15C15.4142 15.75 15.75 15.4142 15.75 15C15.75 14.5858 15.4142 14.25 15 14.25H9ZM9 10.25C8.58579 10.25 8.25 10.5858 8.25 11C8.25 11.4142 8.58579 11.75 9 11.75H15C15.4142 11.75 15.75 11.4142 15.75 11C15.75 10.5858 15.4142 10.25 15 10.25H9ZM9 6.25C8.58579 6.25 8.25 6.58579 8.25 7C8.25 7.41421 8.58579 7.75 9 7.75H15C15.4142 7.75 15.75 7.41421 15.75 7C15.75 6.58579 15.4142 6.25 15 6.25H9Z" fill="#656A7A"/>
</svg>
