<svg width="20" height="20" viewBox="0 0 20 20" fill="none" xmlns="http://www.w3.org/2000/svg">
<g id="Icon-M/Line/3-dot-vertical">
<g id="Icon-L/Line/3-dot-vertical">
<g id="Icon">
<path id="Vector" d="M9.58333 5C8.89297 5 8.33333 4.44036 8.33333 3.75C8.33333 3.05964 8.89297 2.5 9.58333 2.5C10.2737 2.5 10.8333 3.05964 10.8333 3.75C10.8333 4.44036 10.2737 5 9.58333 5Z" fill="black"/>
<path id="Vector_2" d="M9.58333 10.8335C8.89297 10.8335 8.33333 10.2739 8.33333 9.5835C8.33333 8.89314 8.89297 8.3335 9.58333 8.3335C10.2737 8.3335 10.8333 8.89314 10.8333 9.5835C10.8333 10.2739 10.2737 10.8335 9.58333 10.8335Z" fill="black"/>
<path id="Vector_3" d="M9.58333 16.6665C8.89297 16.6665 8.33333 16.1069 8.33333 15.4165C8.33333 14.7261 8.89297 14.1665 9.58333 14.1665C10.2737 14.1665 10.8333 14.7261 10.8333 15.4165C10.8333 16.1069 10.2737 16.6665 9.58333 16.6665Z" fill="black"/>
</g>
</g>
</g>
</svg>
