<svg width="20" height="20" viewBox="0 0 20 20" fill="none" xmlns="http://www.w3.org/2000/svg">
<g id="Icon-M/Bold/add-circle">
<g id="Icon-L/Bold/add-circle">
<g id="vuesax/bold/add-circle">
<g id="add-circle">
<path id="Vector" d="M10 1.6665C5.40834 1.6665 1.66667 5.40817 1.66667 9.99984C1.66667 14.5915 5.40834 18.3332 10 18.3332C14.5917 18.3332 18.3333 14.5915 18.3333 9.99984C18.3333 5.40817 14.5917 1.6665 10 1.6665ZM13.3333 10.6248H10.625V13.3332C10.625 13.6748 10.3417 13.9582 10 13.9582C9.65834 13.9582 9.375 13.6748 9.375 13.3332V10.6248H6.66667C6.32501 10.6248 6.04167 10.3415 6.04167 9.99984C6.04167 9.65817 6.32501 9.37484 6.66667 9.37484H9.375V6.6665C9.375 6.32484 9.65834 6.0415 10 6.0415C10.3417 6.0415 10.625 6.32484 10.625 6.6665V9.37484H13.3333C13.675 9.37484 13.9583 9.65817 13.9583 9.99984C13.9583 10.3415 13.675 10.6248 13.3333 10.6248Z" fill="#292D32"/>
</g>
</g>
</g>
</g>
</svg>
