<svg width="20" height="20" viewBox="0 0 20 20" fill="none" xmlns="http://www.w3.org/2000/svg">
<g id="Icon-M/Bold/card">
<g id="Icon-L/Bold/card">
<g id="Icon">
<path id="Vector" d="M18.125 14.1665C18.125 15.4322 17.0987 16.4585 15.833 16.4585H4.16699C2.90134 16.4585 1.875 15.4322 1.875 14.1665V8.12451H18.125V14.1665ZM5 11.8745C4.65493 11.8745 4.37518 12.1545 4.375 12.4995C4.375 12.8447 4.65482 13.1245 5 13.1245H8.33301C8.67819 13.1245 8.95801 12.8447 8.95801 12.4995C8.95783 12.1545 8.67808 11.8745 8.33301 11.8745H5ZM15.833 3.5415C17.0987 3.5415 18.125 4.56784 18.125 5.8335V6.87451H1.875V5.8335C1.875 4.56784 2.90134 3.5415 4.16699 3.5415H15.833Z" fill="black"/>
</g>
</g>
</g>
</svg>
