<svg width="20" height="20" viewBox="0 0 20 20" fill="none" xmlns="http://www.w3.org/2000/svg">
<g id="Icon-M/Bold/edit-2">
<g id="Icon-L/Bold/edit-2">
<g id="vuesax/bold/edit-2">
<g id="edit-2">
<path id="Vector" d="M17.5 18.3335H2.5C2.15833 18.3335 1.875 18.0502 1.875 17.7085C1.875 17.3668 2.15833 17.0835 2.5 17.0835H17.5C17.8417 17.0835 18.125 17.3668 18.125 17.7085C18.125 18.0502 17.8417 18.3335 17.5 18.3335Z" fill="#292D32"/>
<path id="Vector_2" d="M15.85 2.90005C14.2333 1.28338 12.65 1.24172 10.9917 2.90005L9.98334 3.90838C9.90001 3.99172 9.86668 4.12505 9.90001 4.24172C10.5333 6.45005 12.3 8.21672 14.5083 8.85005C14.5417 8.85838 14.575 8.86672 14.6083 8.86672C14.7 8.86672 14.7833 8.83338 14.85 8.76672L15.85 7.75838C16.675 6.94172 17.075 6.15005 17.075 5.35005C17.0833 4.52505 16.6833 3.72505 15.85 2.90005Z" fill="#292D32"/>
<path id="Vector_3" d="M13.0083 9.60817C12.7667 9.4915 12.5333 9.37484 12.3083 9.2415C12.125 9.13317 11.95 9.0165 11.775 8.8915C11.6333 8.79984 11.4667 8.6665 11.3083 8.53317C11.2917 8.52484 11.2333 8.47484 11.1667 8.40817C10.8917 8.17484 10.5833 7.87484 10.3083 7.5415C10.2833 7.52484 10.2417 7.4665 10.1833 7.3915C10.1 7.2915 9.95834 7.12484 9.83334 6.93317C9.73334 6.80817 9.61668 6.62484 9.50834 6.4415C9.37501 6.2165 9.25834 5.9915 9.14168 5.75817C8.98871 5.43039 8.5585 5.33301 8.30273 5.58879L3.61668 10.2748C3.50834 10.3832 3.40834 10.5915 3.38334 10.7332L2.93334 13.9248C2.85001 14.4915 3.00834 15.0248 3.35834 15.3832C3.65834 15.6748 4.07501 15.8332 4.52501 15.8332C4.62501 15.8332 4.72501 15.8248 4.82501 15.8082L8.02501 15.3582C8.17501 15.3332 8.38334 15.2332 8.48334 15.1248L13.1771 10.4311C13.4278 10.1804 13.3336 9.74912 13.0083 9.60817Z" fill="#292D32"/>
</g>
</g>
</g>
</g>
</svg>
