<svg width="20" height="20" viewBox="0 0 20 20" fill="none" xmlns="http://www.w3.org/2000/svg">
<g id="Icon-M/Bold/filter">
<g id="Icon-L/Bold/filter">
<g id="vuesax/bold/filter">
<g id="filter">
<path id="Vector" d="M17.1667 3.41667V5.25C17.1667 5.91667 16.75 6.75 16.3333 7.16667L12.75 10.3333C12.25 10.75 11.9167 11.5833 11.9167 12.25V15.8333C11.9167 16.3333 11.5833 17 11.1667 17.25L10 18C8.91667 18.6667 7.41667 17.9167 7.41667 16.5833V12.1667C7.41667 11.5833 7.08334 10.8333 6.75001 10.4167L6.35834 10.0083C6.10001 9.73333 6.05001 9.31667 6.25834 8.99167L10.525 2.14167C10.675 1.9 10.9417 1.75 11.2333 1.75H15.5C16.4167 1.75 17.1667 2.5 17.1667 3.41667Z" fill="#292D32"/>
<path id="Vector_2" d="M8.625 3.025L5.66666 7.76667C5.38333 8.225 4.73333 8.29167 4.35833 7.9L3.58333 7.08333C3.16666 6.66667 2.83333 5.91667 2.83333 5.41667V3.5C2.83333 2.5 3.58333 1.75 4.49999 1.75H7.91666C8.56666 1.75 8.96666 2.46667 8.625 3.025Z" fill="#292D32"/>
</g>
</g>
</g>
</g>
</svg>
