<svg width="20" height="20" viewBox="0 0 20 20" fill="none" xmlns="http://www.w3.org/2000/svg">
<g id="Icon-M/Bold/folder-add">
<g id="Icon-L/Bold/folder-add">
<g id="vuesax/bold/folder-add">
<g id="folder-add">
<path id="Vector" d="M17.3728 6.46938C17.8002 7.01403 17.3289 7.70817 16.6365 7.70817H2.66666C2.11438 7.70817 1.66666 7.26046 1.66666 6.70817V5.34984C1.66666 3.3165 3.31666 1.6665 5.35 1.6665H7.28333C8.64166 1.6665 9.06666 2.10817 9.60833 2.83317L10.775 4.38317C11.0333 4.72484 11.0667 4.7665 11.55 4.7665H13.875C15.2939 4.7665 16.5588 5.43201 17.3728 6.46938Z" fill="#292D32"/>
<path id="Vector_2" d="M18.32 9.95463C18.3182 9.40367 17.871 8.95802 17.32 8.95803L2.66665 8.95828C2.11437 8.95829 1.66666 9.40601 1.66666 9.95828V13.875C1.66666 16.3333 3.66666 18.3333 6.125 18.3333H13.875C16.3333 18.3333 18.3333 16.3333 18.3333 13.875L18.32 9.95463ZM12.0833 13.9583H10.675V15.4166C10.675 15.7583 10.3917 16.0416 10.05 16.0416C9.7 16.0416 9.425 15.7583 9.425 15.4166V13.9583H7.91666C7.575 13.9583 7.29166 13.675 7.29166 13.3333C7.29166 12.9916 7.575 12.7083 7.91666 12.7083H9.425V11.25C9.425 10.9083 9.7 10.625 10.05 10.625C10.3917 10.625 10.675 10.9083 10.675 11.25V12.7083H12.0833C12.425 12.7083 12.7083 12.9916 12.7083 13.3333C12.7083 13.675 12.425 13.9583 12.0833 13.9583Z" fill="#292D32"/>
</g>
</g>
</g>
</g>
</svg>
