<svg width="20" height="20" viewBox="0 0 20 20" fill="none" xmlns="http://www.w3.org/2000/svg">
<g id="Icon-M/Bold/folder">
<g id="Icon-L/Bold/folder">
<g id="vuesax/bold/folder">
<g id="folder">
<path id="Vector" d="M17.3728 6.46938C17.8002 7.01403 17.3289 7.70817 16.6366 7.70817H2.66667C2.11439 7.70817 1.66667 7.26046 1.66667 6.70817V5.34984C1.66667 3.3165 3.31667 1.6665 5.35001 1.6665H7.28334C8.64167 1.6665 9.06667 2.10817 9.60834 2.83317L10.775 4.38317C11.0333 4.72484 11.0667 4.7665 11.55 4.7665H13.875C15.2939 4.7665 16.5588 5.43201 17.3728 6.46938Z" fill="#292D32"/>
<path id="Vector_2" d="M17.32 8.95802C17.871 8.95801 18.3182 9.40367 18.32 9.95463L18.3333 13.8749C18.3333 16.3332 16.3333 18.3332 13.875 18.3332H6.125C3.66667 18.3332 1.66667 16.3332 1.66667 13.8749V9.95822C1.66667 9.40594 2.11438 8.95823 2.66666 8.95822L17.32 8.95802Z" fill="#292D32"/>
</g>
</g>
</g>
</g>
</svg>
