<svg width="20" height="20" viewBox="0 0 20 20" fill="none" xmlns="http://www.w3.org/2000/svg">
<g id="Icon-M/Bold/info-circle">
<g id="Icon-L/Bold/info-circle">
<g id="vuesax/bold/info-circle">
<g id="info-circle">
<path id="Vector" d="M10 1.6665C5.40834 1.6665 1.66667 5.40817 1.66667 9.99984C1.66667 14.5915 5.40834 18.3332 10 18.3332C14.5917 18.3332 18.3333 14.5915 18.3333 9.99984C18.3333 5.40817 14.5917 1.6665 10 1.6665ZM9.375 6.6665C9.375 6.32484 9.65834 6.0415 10 6.0415C10.3417 6.0415 10.625 6.32484 10.625 6.6665V10.8332C10.625 11.1748 10.3417 11.4582 10 11.4582C9.65834 11.4582 9.375 11.1748 9.375 10.8332V6.6665ZM10.7667 13.6498C10.725 13.7582 10.6667 13.8415 10.5917 13.9248C10.5083 13.9998 10.4167 14.0582 10.3167 14.0998C10.2167 14.1415 10.1083 14.1665 10 14.1665C9.89167 14.1665 9.78334 14.1415 9.68334 14.0998C9.58334 14.0582 9.49167 13.9998 9.40834 13.9248C9.33334 13.8415 9.275 13.7582 9.23334 13.6498C9.19167 13.5498 9.16667 13.4415 9.16667 13.3332C9.16667 13.2248 9.19167 13.1165 9.23334 13.0165C9.275 12.9165 9.33334 12.8248 9.40834 12.7415C9.49167 12.6665 9.58334 12.6082 9.68334 12.5665C9.88334 12.4832 10.1167 12.4832 10.3167 12.5665C10.4167 12.6082 10.5083 12.6665 10.5917 12.7415C10.6667 12.8248 10.725 12.9165 10.7667 13.0165C10.8083 13.1165 10.8333 13.2248 10.8333 13.3332C10.8333 13.4415 10.8083 13.5498 10.7667 13.6498Z" fill="#292D32"/>
</g>
</g>
</g>
</g>
</svg>
