<svg width="20" height="20" viewBox="0 0 20 20" fill="none" xmlns="http://www.w3.org/2000/svg">
<g id="Icon-M/Bold/map">
<g id="Icon-L/Bold/map">
<g id="vuesax/bold/map">
<path id="Vector" d="M6.35833 2.97506C6.50782 2.89353 6.66667 3.01897 6.66667 3.18924V14.4667C6.66667 14.664 6.53158 14.8306 6.35833 14.9251L4.4 16.0417C3.03333 16.8251 1.90833 16.1751 1.90833 14.5917V6.4834C1.90833 5.9584 2.28333 5.3084 2.75 5.04173L6.35833 2.97506Z" fill="#292D32"/>
<path id="Vector_2" d="M12.2219 5.06214C12.3922 5.1465 12.5 5.32013 12.5 5.51021V16.2868C12.5 16.6553 12.115 16.8972 11.783 16.7372L8.40798 15.1112C8.23498 15.0279 8.125 14.8528 8.125 14.6608V3.83878C8.125 3.46792 8.51456 3.22613 8.8469 3.39071L12.2219 5.06214Z" fill="#292D32"/>
<path id="Vector_3" d="M18.3333 5.40855V13.5169C18.3333 14.0419 17.9583 14.6919 17.4917 14.9586L14.707 16.5545C14.3736 16.7455 13.9583 16.5049 13.9583 16.1207V5.32387C13.9583 5.14436 14.0546 4.97862 14.2105 4.88963L15.8417 3.95855C17.2083 3.17522 18.3333 3.82522 18.3333 5.40855Z" fill="#292D32"/>
</g>
</g>
</g>
</svg>
