<svg width="20" height="20" viewBox="0 0 20 20" fill="none" xmlns="http://www.w3.org/2000/svg">
<g id="Icon-M/Bold/menu-board">
<g id="Icon-L/Bold/menu-board">
<g id="vuesax/bold/menu-board">
<g id="menu-board">
<path id="Vector" d="M17.4167 8.20833L17.9083 16.45C17.925 16.675 17.8167 16.825 17.7583 16.8917C17.6917 16.9667 17.55 17.0833 17.3167 17.0833H15.0417L16.8417 8.20833H17.4167ZM18.3333 5L18.325 5.01667C18.3417 5.21667 18.325 5.425 18.275 5.63333L12.1333 16.9083C11.9333 17.75 11.1833 18.3333 10.3167 18.3333H17.3167C18.3917 18.3333 19.2417 17.425 19.1583 16.35L18.3333 5Z" fill="#292D32"/>
<path id="Vector_2" d="M9.54167 1.86683C9.625 1.53349 9.41667 1.19183 9.08333 1.10849C8.75 1.03349 8.40833 1.23349 8.325 1.56683L7.90833 3.29183H9.19167L9.54167 1.86683Z" fill="#292D32"/>
<path id="Vector_3" d="M15.0417 1.84147C15.1167 1.4998 14.9 1.1748 14.5583 1.0998C14.225 1.0248 13.8917 1.24147 13.8167 1.58313L13.4417 3.30813H14.725L15.0417 1.84147Z" fill="#292D32"/>
<path id="Vector_4" d="M18.1833 4.44154C17.9083 3.77487 17.2583 3.29987 16.4583 3.29987H14.725L14.2583 5.4582C14.1917 5.74987 13.9333 5.94987 13.65 5.94987C13.6083 5.94987 13.5583 5.94987 13.5167 5.9332C13.1833 5.8582 12.9667 5.52487 13.0333 5.19154L13.4417 3.29154H9.19167L8.66667 5.4582C8.6 5.74154 8.34167 5.9332 8.05833 5.9332C8.00833 5.9332 7.95833 5.92487 7.90833 5.91654C7.575 5.8332 7.36667 5.49987 7.45 5.1582L7.9 3.2832H6.20833C5.39167 3.2832 4.66667 3.81654 4.425 4.59987L0.916667 15.8915C0.55 17.0999 1.44167 18.3332 2.7 18.3332H13.65C14.5167 18.3332 15.2667 17.7499 15.4667 16.9082L18.275 5.6332C18.325 5.42487 18.3417 5.21654 18.325 5.01654C18.3083 4.81654 18.2667 4.61654 18.1833 4.44154ZM12.25 13.9582H5.58333C5.24167 13.9582 4.95833 13.6749 4.95833 13.3332C4.95833 12.9915 5.24167 12.7082 5.58333 12.7082H12.25C12.5917 12.7082 12.875 12.9915 12.875 13.3332C12.875 13.6749 12.5917 13.9582 12.25 13.9582ZM13.0833 10.6249H6.41667C6.075 10.6249 5.79167 10.3415 5.79167 9.99987C5.79167 9.6582 6.075 9.37487 6.41667 9.37487H13.0833C13.425 9.37487 13.7083 9.6582 13.7083 9.99987C13.7083 10.3415 13.425 10.6249 13.0833 10.6249Z" fill="#292D32"/>
</g>
</g>
</g>
</g>
</svg>
