<svg width="20" height="20" viewBox="0 0 20 20" fill="none" xmlns="http://www.w3.org/2000/svg">
<g id="Icon-M/Bold/personalcard">
<g id="Icon-L/Bold/personalcard">
<g id="vuesax/bold/personalcard">
<g id="personalcard">
<path id="Vector" d="M15 2.5H5C3.15833 2.5 1.66667 3.98333 1.66667 5.80833V14.1917C1.66667 16.0167 3.15833 17.5 5 17.5H15C16.8417 17.5 18.3333 16.0167 18.3333 14.1917V5.80833C18.3333 3.98333 16.8417 2.5 15 2.5ZM7.08333 5.975C8.14167 5.975 9.00833 6.84167 9.00833 7.9C9.00833 8.95833 8.14167 9.825 7.08333 9.825C6.025 9.825 5.15833 8.95833 5.15833 7.9C5.15833 6.84167 6.025 5.975 7.08333 5.975ZM10.3083 13.8833C10.2333 13.9667 10.1167 14.0167 10 14.0167H4.16667C4.05 14.0167 3.93333 13.9667 3.85833 13.8833C3.78333 13.8 3.74167 13.6833 3.75 13.5667C3.89167 12.1667 5.00833 11.0583 6.40833 10.925C6.85 10.8833 7.30833 10.8833 7.75 10.925C9.15 11.0583 10.275 12.1667 10.4083 13.5667C10.425 13.6833 10.3833 13.8 10.3083 13.8833ZM15.8333 13.9583H14.1667C13.825 13.9583 13.5417 13.675 13.5417 13.3333C13.5417 12.9917 13.825 12.7083 14.1667 12.7083H15.8333C16.175 12.7083 16.4583 12.9917 16.4583 13.3333C16.4583 13.675 16.175 13.9583 15.8333 13.9583ZM15.8333 10.625H12.5C12.1583 10.625 11.875 10.3417 11.875 10C11.875 9.65833 12.1583 9.375 12.5 9.375H15.8333C16.175 9.375 16.4583 9.65833 16.4583 10C16.4583 10.3417 16.175 10.625 15.8333 10.625ZM15.8333 7.29167H11.6667C11.325 7.29167 11.0417 7.00833 11.0417 6.66667C11.0417 6.325 11.325 6.04167 11.6667 6.04167H15.8333C16.175 6.04167 16.4583 6.325 16.4583 6.66667C16.4583 7.00833 16.175 7.29167 15.8333 7.29167Z" fill="#292D32"/>
</g>
</g>
</g>
</g>
</svg>
