<svg width="20" height="20" viewBox="0 0 20 20" fill="none" xmlns="http://www.w3.org/2000/svg">
<g id="Icon-M/Bold/save-2">
<g id="Icon-L/Bold/save-2">
<g id="vuesax/bold/save-2">
<g id="save-2">
<path id="Vector" d="M10.7417 4.8999H4.25833C2.83333 4.8999 1.66666 6.06657 1.66666 7.49157V16.9582C1.66666 18.1666 2.53333 18.6832 3.59166 18.0916L6.86666 16.2666C7.21666 16.0749 7.78333 16.0749 8.125 16.2666L11.4 18.0916C12.4667 18.6749 13.3333 18.1666 13.3333 16.9582V7.49157C13.3333 6.06657 12.1667 4.8999 10.7417 4.8999Z" fill="#292D32"/>
<path id="Vector_2" d="M18.3333 4.25817V13.7248C18.3333 14.9332 17.4667 15.4415 16.4083 14.8582L14.8 13.9582C14.6667 13.8832 14.5833 13.7415 14.5833 13.5915V7.4915C14.5833 5.37484 12.8583 3.64984 10.7417 3.64984H7.35C7.04167 3.64984 6.825 3.32484 6.96667 3.05817C7.4 2.23317 8.26667 1.6665 9.25833 1.6665H15.7417C17.1667 1.6665 18.3333 2.83317 18.3333 4.25817Z" fill="#292D32"/>
</g>
</g>
</g>
</g>
</svg>
