<svg width="20" height="20" viewBox="0 0 20 20" fill="none" xmlns="http://www.w3.org/2000/svg">
<g id="Icon-M/Bold/shield-tick">
<g id="Icon-L/Bold/shield-tick">
<g id="vuesax/bold/shield-tick">
<path id="Vector" d="M15.45 3.43337L10.8667 1.7167C10.3917 1.5417 9.61667 1.5417 9.14167 1.7167L4.55833 3.43337C3.675 3.7667 2.95833 4.80003 2.95833 5.7417V12.4917C2.95833 13.1667 3.4 14.0584 3.94167 14.4584L8.525 17.8834C9.33333 18.4917 10.6583 18.4917 11.4667 17.8834L16.05 14.4584C16.5917 14.05 17.0333 13.1667 17.0333 12.4917V5.7417C17.0417 4.80003 16.325 3.7667 15.45 3.43337ZM12.9 8.10003L9.31667 11.6834C9.19167 11.8084 9.03333 11.8667 8.875 11.8667C8.71667 11.8667 8.55833 11.8084 8.43333 11.6834L7.1 10.3334C6.85833 10.0917 6.85833 9.6917 7.1 9.45003C7.34167 9.20837 7.74167 9.20837 7.98333 9.45003L8.88333 10.35L12.025 7.20837C12.2667 6.9667 12.6667 6.9667 12.9083 7.20837C13.15 7.45003 13.15 7.85837 12.9 8.10003Z" fill="#292D32"/>
</g>
</g>
</g>
</svg>
