<svg width="20" height="20" viewBox="0 0 20 20" fill="none" xmlns="http://www.w3.org/2000/svg">
<g id="Icon-M/Bold/teacher">
<g id="Icon-L/Bold/teacher">
<g id="vuesax/bold/teacher">
<path id="Vector" d="M14.025 13.0335C14.5833 12.6668 15.3167 13.0668 15.3167 13.7335V14.8085C15.3167 15.8668 14.4917 17.0001 13.5 17.3335L10.8417 18.2168C10.375 18.3751 9.61667 18.3751 9.15833 18.2168L6.5 17.3335C5.5 17.0001 4.68333 15.8668 4.68333 14.8085V13.7251C4.68333 13.0668 5.41667 12.6668 5.96667 13.0251L7.68333 14.1418C8.34167 14.5835 9.175 14.8001 10.0083 14.8001C10.8417 14.8001 11.675 14.5835 12.3333 14.1418L14.025 13.0335Z" fill="#292D32"/>
<path id="Vector_2" d="M16.65 5.3833L11.6583 2.1083C10.7583 1.51663 9.275 1.51663 8.375 2.1083L3.35833 5.3833C1.75 6.42497 1.75 8.7833 3.35833 9.8333L4.69167 10.7L8.375 13.1C9.275 13.6916 10.7583 13.6916 11.6583 13.1L15.3167 10.7L16.4583 9.94997V12.5C16.4583 12.8416 16.7417 13.125 17.0833 13.125C17.425 13.125 17.7083 12.8416 17.7083 12.5V8.39997C18.0417 7.32497 17.7 6.07497 16.65 5.3833Z" fill="#292D32"/>
</g>
</g>
</g>
</svg>
