<svg width="20" height="20" viewBox="0 0 20 20" fill="none" xmlns="http://www.w3.org/2000/svg">
<g id="Icon-M/Bold/tick-circle">
<g id="Icon-L/Bold/tick-circle">
<g id="vuesax/bold/tick-circle">
<g id="tick-circle">
<path id="Vector" d="M10 1.6665C5.40834 1.6665 1.66667 5.40817 1.66667 9.99984C1.66667 14.5915 5.40834 18.3332 10 18.3332C14.5917 18.3332 18.3333 14.5915 18.3333 9.99984C18.3333 5.40817 14.5917 1.6665 10 1.6665ZM13.9833 8.08317L9.25834 12.8082C9.14167 12.9248 8.98334 12.9915 8.81667 12.9915C8.65 12.9915 8.49167 12.9248 8.37501 12.8082L6.01667 10.4498C5.775 10.2082 5.775 9.80817 6.01667 9.5665C6.25834 9.32484 6.65834 9.32484 6.9 9.5665L8.81667 11.4832L13.1 7.19984C13.3417 6.95817 13.7417 6.95817 13.9833 7.19984C14.225 7.4415 14.225 7.83317 13.9833 8.08317Z" fill="#292D32"/>
</g>
</g>
</g>
</g>
</svg>
