<svg width="20" height="20" viewBox="0 0 20 20" fill="none" xmlns="http://www.w3.org/2000/svg">
<path d="M4.33872 9.92948C0.699844 13.5326 5.4026 16.7762 7.53034 17.4345C9.12616 18.2274 13.0248 18.1485 14.3125 17.4345C24.2862 11.9046 10.9115 -1.95116 10.5186 1.56371C10.1212 5.11906 10.0173 6.99983 9.5161 6.50557C9.01486 4.03474 4.50371 2.94894 4.50371 4.52895C4.50371 6.50396 6.3334 7.95442 4.33872 9.92948Z" fill="#FF8484"/>
<path d="M6.77669 12.6161C4.66552 14.5733 7.39391 16.3352 8.62836 16.6928C9.55421 17.1235 11.8161 17.0807 12.5632 16.6928C18.3496 13.6889 12.0447 6.40644 11.8161 8.31385C11.5846 10.245 10.6853 11.5121 9.87737 11.3795C9.41445 9.87749 6.77669 9.18298 6.77669 10.0412C6.77669 11.1141 7.93393 11.5432 6.77669 12.6161Z" fill="#FF9D52"/>
</svg>
