<svg width="24" height="24" viewBox="0 0 24 24" fill="none" xmlns="http://www.w3.org/2000/svg">
<g id="Icon-L/Bold/card">
<g id="Icon">
<path id="Vector" d="M21.75 17C21.75 18.5188 20.5188 19.75 19 19.75H5C3.48122 19.75 2.25 18.5188 2.25 17V9.75H21.75V17ZM6 14.25C5.58579 14.25 5.25 14.5858 5.25 15C5.25 15.4142 5.58579 15.75 6 15.75H10C10.4142 15.75 10.75 15.4142 10.75 15C10.75 14.5858 10.4142 14.25 10 14.25H6ZM19 4.25C20.5188 4.25 21.75 5.48122 21.75 7V8.25H2.25V7C2.25 5.48122 3.48122 4.25 5 4.25H19Z" fill="black"/>
</g>
</g>
</svg>
