<svg width="24" height="24" viewBox="0 0 24 24" fill="none" xmlns="http://www.w3.org/2000/svg">
<path fill-rule="evenodd" clip-rule="evenodd" d="M2.25 12C2.25 6.61522 6.61522 2.25 12 2.25C17.3848 2.25 21.75 6.61522 21.75 12C21.75 17.3848 17.3848 21.75 12 21.75C6.61522 21.75 2.25 17.3848 2.25 12ZM16.3381 12.6471C15.8547 13.5533 15.2616 14.193 14.5661 14.6103C13.8706 15.0276 13.027 15.25 11.9999 15.25C10.9727 15.25 10.1291 15.0276 9.43365 14.6103C8.73815 14.193 8.14497 13.5533 7.66162 12.6471C7.46669 12.2816 7.01239 12.1433 6.64691 12.3382C6.28143 12.5332 6.14316 12.9875 6.33809 13.3529C6.92633 14.4559 7.69458 15.3162 8.6619 15.8966C9.62922 16.477 10.7498 16.75 11.9999 16.75C13.2499 16.75 14.3705 16.477 15.3378 15.8966C16.3051 15.3162 17.0734 14.4559 17.6616 13.3529C17.8565 12.9875 17.7183 12.5332 17.3528 12.3382C16.9873 12.1433 16.533 12.2816 16.3381 12.6471ZM10 10C10 10.5523 9.55228 11 9 11C8.44772 11 8 10.5523 8 10C8 9.44772 8.44772 9 9 9C9.55228 9 10 9.44772 10 10ZM15 11C15.5523 11 16 10.5523 16 10C16 9.44772 15.5523 9 15 9C14.4477 9 14 9.44772 14 10C14 10.5523 14.4477 11 15 11Z" fill="#656A7A"/>
</svg>
