<svg width="24" height="24" viewBox="0 0 24 24" fill="none" xmlns="http://www.w3.org/2000/svg">
<g id="Icon-L/Bold/pin">
<g id="Icon">
<path id="Vector" d="M14.8083 3.18297C14.1249 2.49955 13.0169 2.49956 12.3334 3.18297L10.9789 4.53755C10.2955 5.22097 10.2955 6.329 10.9789 7.01242L16.9941 13.0277C17.6775 13.7111 18.7856 13.7111 19.469 13.0277L20.8236 11.6731C21.507 10.9897 21.507 9.88165 20.8236 9.19823L14.8083 3.18297Z" fill="black"/>
<path id="Vector_2" d="M13.816 7.72109C13.2412 7.14629 12.3462 7.04298 11.6556 7.47171L7.86438 9.82514C7.82297 9.85085 7.77495 9.86389 7.72623 9.86266L5.52161 9.80707C3.94166 9.76723 3.12251 11.6764 4.24006 12.7939L11.2007 19.7546C12.3183 20.8722 14.2274 20.053 14.1876 18.4731L14.132 16.2684C14.1308 16.2197 14.1438 16.1717 14.1695 16.1303L16.523 12.3391C16.9517 11.6484 16.8484 10.7535 16.2736 10.1787L13.816 7.72109Z" fill="black"/>
<path id="Vector_3" fill-rule="evenodd" clip-rule="evenodd" d="M8.78276 15.2138C9.07565 15.5067 9.07565 15.9816 8.78276 16.2745L4.62957 20.4277C4.33668 20.7205 3.86181 20.7205 3.56891 20.4277C3.27602 20.1348 3.27602 19.6599 3.56891 19.367L7.7221 15.2138C8.01499 14.9209 8.48986 14.9209 8.78276 15.2138Z" fill="black"/>
</g>
</g>
</svg>
