<svg width="24" height="24" viewBox="0 0 24 24" fill="none" xmlns="http://www.w3.org/2000/svg">
<g id="Icon-L/Bold/qrcode">
<g id="icon">
<path id="vector" fill-rule="evenodd" clip-rule="evenodd" d="M4.25 3.5C3.83579 3.5 3.5 3.83579 3.5 4.25V8.53125C3.5 8.94546 3.16421 9.28125 2.75 9.28125C2.33579 9.28125 2 8.94546 2 8.53125V4.25C2 3.00736 3.00736 2 4.25 2H8.53125C8.94546 2 9.28125 2.33579 9.28125 2.75C9.28125 3.16421 8.94546 3.5 8.53125 3.5H4.25ZM14.7188 2.75C14.7188 2.33579 15.0545 2 15.4688 2H19.75C20.9926 2 22 3.00736 22 4.25V8.53125C22 8.94546 21.6642 9.28125 21.25 9.28125C20.8358 9.28125 20.5 8.94546 20.5 8.53125V4.25C20.5 3.83579 20.1642 3.5 19.75 3.5H15.4688C15.0545 3.5 14.7188 3.16421 14.7188 2.75ZM2.75 14.7188C3.16421 14.7188 3.5 15.0545 3.5 15.4688V19.75C3.5 20.1642 3.83579 20.5 4.25 20.5H8.53125C8.94546 20.5 9.28125 20.8358 9.28125 21.25C9.28125 21.6642 8.94546 22 8.53125 22H4.25C3.00736 22 2 20.9926 2 19.75V15.4688C2 15.0545 2.33579 14.7188 2.75 14.7188ZM21.25 14.7188C21.6642 14.7188 22 15.0545 22 15.4688V19.75C22 20.9926 20.9926 22 19.75 22H15.4688C15.0545 22 14.7188 21.6642 14.7188 21.25C14.7188 20.8358 15.0545 20.5 15.4688 20.5H19.75C20.1642 20.5 20.5 20.1642 20.5 19.75V15.4688C20.5 15.0545 20.8358 14.7188 21.25 14.7188Z" fill="black"/>
<path id="vector_2" fill-rule="evenodd" clip-rule="evenodd" d="M5.25 6.50049C5.25 5.81013 5.80964 5.25049 6.5 5.25049H10C10.6904 5.25049 11.25 5.81013 11.25 6.50049V10.0005C11.25 10.6908 10.6904 11.2505 10 11.2505H6.5C5.80964 11.2505 5.25 10.6908 5.25 10.0005V6.50049ZM6.75 6.75049V9.75049H9.75V6.75049H6.75Z" fill="black"/>
<path id="vector_3" fill-rule="evenodd" clip-rule="evenodd" d="M5.25 14.0005C5.25 13.3101 5.80964 12.7505 6.5 12.7505H10C10.6904 12.7505 11.25 13.3101 11.25 14.0005V17.5005C11.25 18.1908 10.6904 18.7505 10 18.7505H6.5C5.80964 18.7505 5.25 18.1908 5.25 17.5005V14.0005Z" fill="black"/>
<path id="vector_4" fill-rule="evenodd" clip-rule="evenodd" d="M12.75 6.50049C12.75 5.81013 13.3096 5.25049 14 5.25049H17.5C18.1904 5.25049 18.75 5.81013 18.75 6.50049V10.0005C18.75 10.6908 18.1904 11.2505 17.5 11.2505H14C13.3096 11.2505 12.75 10.6908 12.75 10.0005V6.50049Z" fill="black"/>
<path id="vector_5" fill-rule="evenodd" clip-rule="evenodd" d="M12.75 14.0005C12.75 13.3101 13.3096 12.7505 14 12.7505H17.5961C18.0103 12.7505 18.3461 13.0863 18.3461 13.5005C18.3461 13.9147 18.0103 14.2505 17.5961 14.2505H14.25V17.2505H17.5961C18.0103 17.2505 18.3461 17.5863 18.3461 18.0005C18.3461 18.4147 18.0103 18.7505 17.5961 18.7505H14C13.3096 18.7505 12.75 18.1908 12.75 17.5005V14.0005Z" fill="black"/>
</g>
</g>
</svg>
