<svg width="20" height="20" viewBox="0 0 20 20" fill="none" xmlns="http://www.w3.org/2000/svg">
<g id="Icon-L/Bold/user-square">
<g id="Icon-L/Bold/user-square_2">
<g id="vuesax/bold/user-square">
<g id="user-square">
<g id="Group">
<path id="Vector" d="M13.4917 1.6665H6.50833C3.475 1.6665 1.66667 3.47484 1.66667 6.50817V13.4915C1.66667 15.8332 2.74167 17.4415 4.63333 18.0498C5.18333 18.2415 5.81667 18.3332 6.50833 18.3332H13.4917C14.1833 18.3332 14.8167 18.2415 15.3667 18.0498C17.2583 17.4415 18.3333 15.8332 18.3333 13.4915V6.50817C18.3333 3.47484 16.525 1.6665 13.4917 1.6665ZM17.0833 13.4915C17.0833 15.2748 16.3833 16.3998 14.975 16.8665C14.1667 15.2748 12.25 14.1415 10 14.1415C7.75 14.1415 5.84167 15.2665 5.025 16.8665H5.01667C3.625 16.4165 2.91667 15.2832 2.91667 13.4998V6.50817C2.91667 4.15817 4.15833 2.9165 6.50833 2.9165H13.4917C15.8417 2.9165 17.0833 4.15817 17.0833 6.50817V13.4915Z" fill="#292D32"/>
<path id="Vector_2" d="M10 6.6665C8.35 6.6665 7.01667 7.99984 7.01667 9.64984C7.01667 11.2998 8.35 12.6415 10 12.6415C11.65 12.6415 12.9833 11.2998 12.9833 9.64984C12.9833 7.99984 11.65 6.6665 10 6.6665Z" fill="#292D32"/>
</g>
</g>
</g>
</g>
</g>
</svg>
