<svg width="20" height="20" viewBox="0 0 20 20" fill="none" xmlns="http://www.w3.org/2000/svg">
<g id="vIcon-M/Bold/bookmark">
<g id="vIcon-L/Bold/bookmark">
<g id="vuesax/bold/bookmark">
<path id="Vector" d="M18.3333 6.50819V13.4915C18.3333 16.1665 16.1667 18.3332 13.4917 18.3332H6.50833C3.83333 18.3332 1.66666 16.1665 1.66666 13.4915V6.50819C1.66666 4.43319 2.51666 2.92486 4.025 2.19153C4.575 1.92486 5.20833 2.34153 5.20833 2.94986V10.3499C5.20833 11.3415 5.59166 12.1332 6.28333 12.5332C6.98333 12.9249 7.86666 12.8415 8.76666 12.2999L9.85 11.6499C9.91666 11.6165 10.0833 11.6165 10.1333 11.6415L11.2333 12.2999C11.8333 12.6582 12.35 12.7749 12.7667 12.7749C13.2 12.7749 13.5333 12.6415 13.7333 12.5249C14.4083 12.1332 14.7917 11.3415 14.7917 10.3499V2.94986C14.7917 2.34153 15.4333 1.92486 15.975 2.19153C17.4833 2.92486 18.3333 4.43319 18.3333 6.50819Z" fill="#292D32"/>
<path id="Vector_2" d="M12.7083 1.6665C13.1667 1.6665 13.5417 2.0415 13.5417 2.49984V10.3498C13.5417 10.8832 13.3833 11.2832 13.1083 11.4415C12.825 11.6082 12.375 11.5248 11.875 11.2248L10.775 10.5665C10.35 10.3082 9.65 10.3082 9.225 10.5665L8.125 11.2248C7.625 11.5248 7.175 11.5998 6.89167 11.4415C6.61667 11.2832 6.45834 10.8832 6.45834 10.3498V2.49984C6.45834 2.0415 6.83334 1.6665 7.29167 1.6665H12.7083Z" fill="#292D32"/>
</g>
</g>
</g>
</svg>
