<svg width="20" height="20" viewBox="0 0 20 20" fill="none" xmlns="http://www.w3.org/2000/svg">
<g id="Icon-M/Bold/barcode">
<g id="Icon-L/Bold/barcode">
<g id="vuesax/bold/barcode">
<g id="barcode">
<path id="Vector" d="M14.1667 2.9165H5.83333C3.33333 2.9165 1.66667 4.1665 1.66667 7.08317V12.9165C1.66667 15.8332 3.33333 17.0832 5.83333 17.0832H14.1667C16.6667 17.0832 18.3333 15.8332 18.3333 12.9165V7.08317C18.3333 4.1665 16.6667 2.9165 14.1667 2.9165ZM5.625 13.3332C5.625 13.6748 5.34167 13.9582 5 13.9582C4.65833 13.9582 4.375 13.6748 4.375 13.3332V6.6665C4.375 6.32484 4.65833 6.0415 5 6.0415C5.34167 6.0415 5.625 6.32484 5.625 6.6665V13.3332ZM8.125 13.3332C8.125 13.6748 7.84167 13.9582 7.5 13.9582C7.15833 13.9582 6.875 13.6748 6.875 13.3332V12.4998C6.875 12.1582 7.15833 11.8748 7.5 11.8748C7.84167 11.8748 8.125 12.1582 8.125 12.4998V13.3332ZM8.125 9.99984C8.125 10.3415 7.84167 10.6248 7.5 10.6248C7.15833 10.6248 6.875 10.3415 6.875 9.99984V6.6665C6.875 6.32484 7.15833 6.0415 7.5 6.0415C7.84167 6.0415 8.125 6.32484 8.125 6.6665V9.99984ZM10.625 13.3332C10.625 13.6748 10.3417 13.9582 10 13.9582C9.65833 13.9582 9.375 13.6748 9.375 13.3332V6.6665C9.375 6.32484 9.65833 6.0415 10 6.0415C10.3417 6.0415 10.625 6.32484 10.625 6.6665V13.3332ZM13.125 13.3332C13.125 13.6748 12.8417 13.9582 12.5 13.9582C12.1583 13.9582 11.875 13.6748 11.875 13.3332V9.99984C11.875 9.65817 12.1583 9.37484 12.5 9.37484C12.8417 9.37484 13.125 9.65817 13.125 9.99984V13.3332ZM13.125 7.49984C13.125 7.8415 12.8417 8.12484 12.5 8.12484C12.1583 8.12484 11.875 7.8415 11.875 7.49984V6.6665C11.875 6.32484 12.1583 6.0415 12.5 6.0415C12.8417 6.0415 13.125 6.32484 13.125 6.6665V7.49984ZM15.625 13.3332C15.625 13.6748 15.3417 13.9582 15 13.9582C14.6583 13.9582 14.375 13.6748 14.375 13.3332V6.6665C14.375 6.32484 14.6583 6.0415 15 6.0415C15.3417 6.0415 15.625 6.32484 15.625 6.6665V13.3332Z" fill="#292D32"/>
</g>
</g>
</g>
</g>
</svg>
