<svg width="20" height="20" viewBox="0 0 20 20" fill="none" xmlns="http://www.w3.org/2000/svg">
<g id="Icon-M/Bold/close-circle">
<g id="Icon-L/Bold/close-circle">
<g id="vuesax/bold/close-circle">
<g id="close-circle">
<path id="Vector" d="M10 1.6665C5.40834 1.6665 1.66667 5.40817 1.66667 9.99984C1.66667 14.5915 5.40834 18.3332 10 18.3332C14.5917 18.3332 18.3333 14.5915 18.3333 9.99984C18.3333 5.40817 14.5917 1.6665 10 1.6665ZM12.8 11.9165C13.0417 12.1582 13.0417 12.5582 12.8 12.7998C12.675 12.9248 12.5167 12.9832 12.3583 12.9832C12.2 12.9832 12.0417 12.9248 11.9167 12.7998L10 10.8832L8.08334 12.7998C7.95834 12.9248 7.8 12.9832 7.64167 12.9832C7.48334 12.9832 7.32501 12.9248 7.20001 12.7998C6.95834 12.5582 6.95834 12.1582 7.20001 11.9165L9.11667 9.99984L7.20001 8.08317C6.95834 7.8415 6.95834 7.4415 7.20001 7.19984C7.44167 6.95817 7.84167 6.95817 8.08334 7.19984L10 9.1165L11.9167 7.19984C12.1583 6.95817 12.5583 6.95817 12.8 7.19984C13.0417 7.4415 13.0417 7.8415 12.8 8.08317L10.8833 9.99984L12.8 11.9165Z" fill="#292D32"/>
</g>
</g>
</g>
</g>
</svg>
