<svg width="20" height="20" viewBox="0 0 20 20" fill="none" xmlns="http://www.w3.org/2000/svg">
<g id="Icon-M/Bold/gallery">
<g id="Icon-L/Bold/gallery">
<g id="vuesax/bold/gallery">
<g id="gallery">
<path id="Vector" d="M2.14999 15.8419L2.13333 15.8586C1.90833 15.3669 1.76666 14.8086 1.70833 14.1919C1.76666 14.8002 1.92499 15.3502 2.14999 15.8419Z" fill="#292D32"/>
<path id="Vector_2" d="M7.5 8.64977C8.59536 8.64977 9.48333 7.7618 9.48333 6.66644C9.48333 5.57107 8.59536 4.68311 7.5 4.68311C6.40463 4.68311 5.51666 5.57107 5.51666 6.66644C5.51666 7.7618 6.40463 8.64977 7.5 8.64977Z" fill="#292D32"/>
<path id="Vector_3" d="M13.4917 1.6665H6.50834C3.475 1.6665 1.66667 3.47484 1.66667 6.50817V13.4915C1.66667 14.3998 1.82501 15.1915 2.13334 15.8582C2.85001 17.4415 4.38334 18.3332 6.50834 18.3332H13.4917C16.525 18.3332 18.3333 16.5248 18.3333 13.4915V11.5832V6.50817C18.3333 3.47484 16.525 1.6665 13.4917 1.6665ZM16.975 10.4165C16.325 9.85817 15.275 9.85817 14.625 10.4165L11.1583 13.3915C10.5083 13.9498 9.45834 13.9498 8.80834 13.3915L8.525 13.1582C7.93334 12.6415 6.99167 12.5915 6.32501 13.0415L3.20834 15.1332C3.025 14.6665 2.91667 14.1248 2.91667 13.4915V6.50817C2.91667 4.15817 4.15834 2.9165 6.50834 2.9165H13.4917C15.8417 2.9165 17.0833 4.15817 17.0833 6.50817V10.5082L16.975 10.4165Z" fill="#292D32"/>
</g>
</g>
</g>
</g>
</svg>
