<svg width="20" height="20" viewBox="0 0 20 20" fill="none" xmlns="http://www.w3.org/2000/svg">
<g id="Icon-M/Bold/medal-star">
<g id="Icon-L/Bold/medal-star">
<g id="vuesax/bold/medal-star">
<g id="medal-star">
<path id="Vector" d="M17.7083 15.3914L16.3333 15.7164C16.025 15.7914 15.7833 16.0248 15.7167 16.3331L15.425 17.5581C15.2667 18.2248 14.4167 18.4331 13.975 17.9081L11.4833 15.0414C11.2833 14.8081 11.3917 14.4414 11.6917 14.3664C13.1667 14.0081 14.4917 13.1831 15.4667 12.0081C15.625 11.8164 15.9083 11.7914 16.0833 11.9664L17.9334 13.8164C18.5667 14.4498 18.3417 15.2414 17.7083 15.3914Z" fill="#292D32"/>
<path id="Vector_2" d="M2.25 15.3914L3.625 15.7164C3.93333 15.7914 4.175 16.0248 4.24167 16.3331L4.53333 17.5581C4.69166 18.2248 5.54166 18.4331 5.98333 17.9081L8.475 15.0414C8.675 14.8081 8.56666 14.4414 8.26666 14.3664C6.79166 14.0081 5.46666 13.1831 4.49166 12.0081C4.33333 11.8164 4.05 11.7914 3.875 11.9664L2.025 13.8164C1.39167 14.4498 1.61666 15.2414 2.25 15.3914Z" fill="#292D32"/>
<path id="Vector_3" d="M10 1.6665C6.77501 1.6665 4.16667 4.27484 4.16667 7.49984C4.16667 8.70817 4.52501 9.8165 5.14167 10.7415C6.04167 12.0748 7.46667 13.0165 9.12501 13.2582C9.40834 13.3082 9.70001 13.3332 10 13.3332C10.3 13.3332 10.5917 13.3082 10.875 13.2582C12.5333 13.0165 13.9583 12.0748 14.8583 10.7415C15.475 9.8165 15.8333 8.70817 15.8333 7.49984C15.8333 4.27484 13.225 1.6665 10 1.6665ZM12.55 7.3165L11.8583 8.00817C11.7417 8.12484 11.675 8.34984 11.7167 8.5165L11.9167 9.37484C12.075 10.0498 11.7167 10.3165 11.1167 9.95817L10.2833 9.4665C10.1333 9.37484 9.88334 9.37484 9.73334 9.4665L8.90001 9.95817C8.30001 10.3082 7.94167 10.0498 8.10001 9.37484L8.30001 8.5165C8.33334 8.35817 8.27501 8.12484 8.15834 8.00817L7.45 7.3165C7.04167 6.90817 7.17501 6.49984 7.74167 6.40817L8.63334 6.25817C8.78334 6.23317 8.95834 6.09984 9.02501 5.9665L9.51667 4.98317C9.78334 4.44984 10.2167 4.44984 10.4833 4.98317L10.975 5.9665C11.0417 6.09984 11.2167 6.23317 11.375 6.25817L12.2667 6.40817C12.825 6.49984 12.9583 6.90817 12.55 7.3165Z" fill="#292D32"/>
</g>
</g>
</g>
</g>
</svg>
