<svg width="20" height="20" viewBox="0 0 20 20" fill="none" xmlns="http://www.w3.org/2000/svg">
<g id="Icon-M/Bold/messages-3">
<g id="Icon-L/Bold/messages-3">
<g id="vuesax/bold/messages-3">
<g id="messages-3">
<path id="Vector" d="M12.9917 10.3333V13.725C12.9917 14.025 12.9583 14.3083 12.8833 14.5667C12.575 15.7917 11.5583 16.5583 10.1583 16.5583H7.89166L5.37499 18.2333C4.99999 18.4917 4.49999 18.2167 4.49999 17.7667V16.5583C3.64999 16.5583 2.94166 16.275 2.44999 15.7833C1.94999 15.2833 1.66666 14.575 1.66666 13.725V10.3333C1.66666 8.75 2.64999 7.65833 4.16666 7.51667C4.27499 7.50833 4.38332 7.5 4.49999 7.5H10.1583C11.8583 7.5 12.9917 8.63333 12.9917 10.3333Z" fill="#292D32"/>
<path id="Vector_2" d="M14.7917 12.9998C15.85 12.9998 16.7417 12.6498 17.3583 12.0248C17.9833 11.4082 18.3333 10.5165 18.3333 9.45817V5.20817C18.3333 3.24984 16.75 1.6665 14.7917 1.6665H7.70832C5.74999 1.6665 4.16666 3.24984 4.16666 5.20817V5.83317C4.16666 6.0665 4.34999 6.24984 4.58332 6.24984H10.1583C12.4167 6.24984 14.2417 8.07484 14.2417 10.3332V12.5832C14.2417 12.8165 14.425 12.9998 14.6583 12.9998H14.7917Z" fill="#292D32"/>
</g>
</g>
</g>
</g>
</svg>
