<svg width="20" height="20" viewBox="0 0 20 20" fill="none" xmlns="http://www.w3.org/2000/svg">
<g id="Icon-M/Bold/message-text">
<g id="Icon-L/Bold/message-text">
<g id="vuesax/bold/message-text">
<g id="message-text">
<path id="Vector" d="M13.3333 1.6665H6.66666C3.33332 1.6665 1.66666 3.33317 1.66666 6.6665V17.4998C1.66666 17.9582 2.04166 18.3332 2.49999 18.3332H13.3333C16.6667 18.3332 18.3333 16.6665 18.3333 13.3332V6.6665C18.3333 3.33317 16.6667 1.6665 13.3333 1.6665ZM11.6667 12.7082H5.83332C5.49166 12.7082 5.20832 12.4248 5.20832 12.0832C5.20832 11.7415 5.49166 11.4582 5.83332 11.4582H11.6667C12.0083 11.4582 12.2917 11.7415 12.2917 12.0832C12.2917 12.4248 12.0083 12.7082 11.6667 12.7082ZM14.1667 8.5415H5.83332C5.49166 8.5415 5.20832 8.25817 5.20832 7.9165C5.20832 7.57484 5.49166 7.2915 5.83332 7.2915H14.1667C14.5083 7.2915 14.7917 7.57484 14.7917 7.9165C14.7917 8.25817 14.5083 8.5415 14.1667 8.5415Z" fill="#292D32"/>
</g>
</g>
</g>
</g>
</svg>
