<svg width="20" height="20" viewBox="0 0 20 20" fill="none" xmlns="http://www.w3.org/2000/svg">
<g id="Icon-M/Bold/pin">
<g id="Icon-L/Bold/pin">
<g id="Icon">
<path id="Vector" d="M12.3403 2.65272C11.7708 2.08321 10.8474 2.08321 10.2779 2.65272L9.14906 3.78154C8.57955 4.35105 8.57954 5.27441 9.14906 5.84393L14.1618 10.8566C14.7313 11.4262 15.6547 11.4262 16.2242 10.8566L17.353 9.72783C17.9225 9.15831 17.9225 8.23495 17.353 7.66543L12.3403 2.65272Z" fill="black"/>
<path id="Vector_2" d="M11.5133 6.43449C11.0343 5.95548 10.2885 5.86939 9.71297 6.22667L6.55365 8.18786C6.51914 8.20928 6.47913 8.22015 6.43852 8.21913L4.60134 8.1728C3.28472 8.1396 2.60209 9.73058 3.53338 10.6619L9.33393 16.4624C10.2652 17.3937 11.8562 16.7111 11.823 15.3945L11.7767 13.5573C11.7756 13.5167 11.7865 13.4767 11.8079 13.4421L13.7691 10.2828C14.1264 9.70728 14.0403 8.9615 13.5613 8.48249L11.5133 6.43449Z" fill="black"/>
<path id="Vector_3" fill-rule="evenodd" clip-rule="evenodd" d="M7.31894 12.6782C7.56302 12.9223 7.56302 13.318 7.31894 13.5621L3.85796 17.023C3.61388 17.2671 3.21815 17.2671 2.97407 17.023C2.73 16.779 2.73 16.3832 2.97407 16.1392L6.43506 12.6782C6.67914 12.4341 7.07487 12.4341 7.31894 12.6782Z" fill="black"/>
</g>
</g>
</g>
</svg>
