<svg width="20" height="20" viewBox="0 0 20 20" fill="none" xmlns="http://www.w3.org/2000/svg">
<g id="Icon-M/Bold/profile-2user">
<g id="Icon-L/Bold/profile-2user">
<g id="vuesax/bold/profile-2user">
<g id="profile-2user">
<path id="Vector" d="M7.49999 1.6665C5.31666 1.6665 3.54166 3.4415 3.54166 5.62484C3.54166 7.7665 5.21666 9.49984 7.39999 9.57484C7.46666 9.5665 7.53332 9.5665 7.58332 9.57484C7.59999 9.57484 7.60832 9.57484 7.62499 9.57484C7.63332 9.57484 7.63332 9.57484 7.64166 9.57484C9.77499 9.49984 11.45 7.7665 11.4583 5.62484C11.4583 3.4415 9.68332 1.6665 7.49999 1.6665Z" fill="#292D32"/>
<path id="Vector_2" d="M11.7333 11.7919C9.40833 10.2419 5.61666 10.2419 3.275 11.7919C2.21666 12.5002 1.63333 13.4586 1.63333 14.4836C1.63333 15.5086 2.21666 16.4586 3.26666 17.1586C4.43333 17.9419 5.96666 18.3336 7.5 18.3336C9.03333 18.3336 10.5667 17.9419 11.7333 17.1586C12.7833 16.4502 13.3667 15.5002 13.3667 14.4669C13.3583 13.4419 12.7833 12.4919 11.7333 11.7919Z" fill="#292D32"/>
<path id="Vector_3" d="M16.6583 6.11659C16.7917 7.73325 15.6417 9.14992 14.05 9.34159C14.0417 9.34159 14.0417 9.34159 14.0333 9.34159H14.0083C13.9583 9.34159 13.9083 9.34159 13.8667 9.35825C13.0583 9.39992 12.3167 9.14159 11.7583 8.66659C12.6167 7.89992 13.1083 6.74992 13.0083 5.49992C12.95 4.82492 12.7167 4.20825 12.3667 3.68325C12.6833 3.52492 13.05 3.42492 13.425 3.39159C15.0583 3.24992 16.5167 4.46659 16.6583 6.11659Z" fill="#292D32"/>
<path id="Vector_4" d="M18.325 13.8252C18.2583 14.6335 17.7417 15.3335 16.875 15.8085C16.0417 16.2668 14.9917 16.4835 13.95 16.4585C14.55 15.9168 14.9 15.2418 14.9667 14.5252C15.05 13.4918 14.5583 12.5002 13.575 11.7085C13.0167 11.2668 12.3667 10.9168 11.6583 10.6585C13.5 10.1252 15.8167 10.4835 17.2417 11.6335C18.0083 12.2502 18.4 13.0252 18.325 13.8252Z" fill="#292D32"/>
</g>
</g>
</g>
</g>
</svg>
