<svg width="20" height="20" viewBox="0 0 20 20" fill="none" xmlns="http://www.w3.org/2000/svg">
<path d="M9.99999 1.6665C5.39999 1.6665 1.66666 5.39984 1.66666 9.99984C1.66666 14.5998 5.39999 18.3332 9.99999 18.3332C14.6 18.3332 18.3333 14.5998 18.3333 9.99984C18.3333 5.39984 14.6 1.6665 9.99999 1.6665ZM5.49999 9.35817C5.64166 8.3665 6.08332 7.47484 6.77499 6.77484C8.44166 5.1165 11.0667 5.02484 12.85 6.47484V5.68317C12.85 5.3415 13.1333 5.05817 13.475 5.05817C13.8167 5.05817 14.1 5.3415 14.1 5.68317V7.90817C14.1 8.24984 13.8167 8.53317 13.475 8.53317H11.25C10.9083 8.53317 10.625 8.24984 10.625 7.90817C10.625 7.5665 10.9083 7.28317 11.25 7.28317H11.875C10.5833 6.38317 8.79999 6.50817 7.64999 7.65817C7.14999 8.15817 6.83332 8.80817 6.72499 9.53317C6.68332 9.8415 6.41666 10.0665 6.10832 10.0665C6.07499 10.0665 6.04999 10.0665 6.01666 10.0582C5.69166 10.0165 5.44999 9.69984 5.49999 9.35817ZM13.225 13.2248C12.3333 14.1165 11.1667 14.5582 9.99999 14.5582C8.98332 14.5582 7.97499 14.1998 7.14166 13.5248V14.3082C7.14166 14.6498 6.85832 14.9332 6.51666 14.9332C6.17499 14.9332 5.89166 14.6498 5.89166 14.3082V12.0832C5.89166 11.7415 6.17499 11.4582 6.51666 11.4582H8.74166C9.08332 11.4582 9.36666 11.7415 9.36666 12.0832C9.36666 12.4248 9.08332 12.7082 8.74166 12.7082H8.11666C9.40832 13.6082 11.1917 13.4832 12.3417 12.3332C12.8417 11.8332 13.1583 11.1832 13.2667 10.4582C13.3167 10.1165 13.625 9.87484 13.975 9.92484C14.3167 9.97484 14.55 10.2915 14.5083 10.6332C14.3583 11.6415 13.9167 12.5332 13.225 13.2248Z" fill="#292D32"/>
</svg>
